PathFileType	4	(X/Y/Z)	Walk7.trc
DataRate	CameraRate	NumFrames	NumMarkers	Units	OrigDataRate	OrigDataStartFrame	OrigNumFrames
200.000000	200.000000	4	61	mm	200.000000	612	852
Frame#	Times		LowerBodyModelVer		LFHD		RFHD		RACR1		RUA1		RCAR		LElbow		RFA1		RASI		LACR1		LLFC		RWRU		LUA1		LTH3		LTB1		LMT1		RTH2		LMT5		LTB3		LTB4		LToe		LTB2		LTH2		LTH4		CLAV		RLFC		STRN		LLMAL		RBHD		LTH1		RTH3		LFA1		RBack		C7		LWRU		LPSI		RMT5		RMT1		LBHD		LCAR		RTH4		RCAL		RTH1		RTB2		RToe		RLMAL		LASI		RPSI		SACR		RTB3		LWRR		RTB1		RTB4		RMMAL		LMMAL		RElbowM		RElbow		T10		RWRR		LCAL		LElbowM
			X1	Y1	Z1	X2	Y2	Z2	X3	Y3	Z3	X4	Y4	Z4	X5	Y5	Z5	X6	Y6	Z6	X7	Y7	Z7	X8	Y8	Z8	X9	Y9	Z9	X10	Y10	Z10	X11	Y11	Z11	X12	Y12	Z12	X13	Y13	Z13	X14	Y14	Z14	X15	Y15	Z15	X16	Y16	Z16	X17	Y17	Z17	X18	Y18	Z18	X19	Y19	Z19	X20	Y20	Z20	X21	Y21	Z21	X22	Y22	Z22	X23	Y23	Z23	X24	Y24	Z24	X25	Y25	Z25	X26	Y26	Z26	X27	Y27	Z27	X28	Y28	Z28	X29	Y29	Z29	X30	Y30	Z30	X31	Y31	Z31	X32	Y32	Z32	X33	Y33	Z33	X34	Y34	Z34	X35	Y35	Z35	X36	Y36	Z36	X37	Y37	Z37	X38	Y38	Z38	X39	Y39	Z39	X40	Y40	Z40	X41	Y41	Z41	X42	Y42	Z42	X43	Y43	Z43	X44	Y44	Z44	X45	Y45	Z45	X46	Y46	Z46	X47	Y47	Z47	X48	Y48	Z48	X49	Y49	Z49	X50	Y50	Z50	X51	Y51	Z51	X52	Y52	Z52	X53	Y53	Z53	X54	Y54	Z54	X55	Y55	Z55	X56	Y56	Z56	X57	Y57	Z57	X58	Y58	Z58	X59	Y59	Z59	X60	Y60	Z60	X61	Y61	Z61

612	3.06	9	2014	4	-32.424	1563.6	-86.432	-33.764	1559.9	11.243	-184.29	1377.2	129.28	-231.14	1239.3	220.67	-235.38	781.06	293.13	-204.49	1053.8	-343.13	-233.96	944.84	277.43	-104.99	967.32	149.64	-155.34	1346.4	-227.89	-237.54	487.55	-173.57	-266.13	842.59	308.91	-164.9	1200.4	-306.26	-196.37	556.75	-186.16	-228.96	332.4	-70.077	-175.48	35.527	-60.287	-56.687	665.43	177.27	-194.97	24.982	-150.76	-257.83	163.55	-78.788	-246.53	248.53	-76.068	-132.15	30.767	-62.509	-247.09	252.3	-137.7	-123.39	631.83	-178.49	-172.23	636.77	-212.91	-99.777	1332.3	-44.359	-69.543	476.55	171.63	-40.028	1215.2	-23.958	-310.6	70.132	-136.44	-204.37	1568.8	17.292	-144.41	712.52	-240.17	-88.952	564.66	178.12	-125.46	943.83	-366.43	-321.05	1316.4	46.766	-256.36	1413.1	-47.762	-123.88	825.8	-395.4	-335.88	978.52	-129.29	13.638	46.469	177.18	40.117	51.478	96.033	-184.31	1560.4	-116.8	-76.346	788.87	-394.99	-112.79	647.83	191.15	-146.9	42.7	100.56	-127.42	730.4	205.95	-52.941	290.58	161.92	77.614	57.301	111.62	-102.27	81.678	153.3	-61.203	977.52	-180.97	-353.39	974.44	2.9553	-344.64	976.48	-63.166	-42.619	199.57	106.02	-76.453	833.62	-338.07	-8.3829	366.49	102.98	-30.573	282.85	103.88	-70.803	92.006	73.426	-298.81	74.988	-52.346	-316.54	1065.7	173.41	-283.54	1078.6	259.01	-319.98	1083.3	-48.124	-225.17	837.2	246.01	-365.65	30.965	-93.758	-187.65	1018	-280.16
613	3.065	9	2014	4	-28	1562.9	-85.965	-29.409	1559.1	11.706	-180.14	1376.5	129.59	-227.01	1238.5	220.86	-231.43	780.44	293.64	-198.44	1053.2	-343.28	-230.02	944.17	277.8	-100.33	966.41	149.59	-150.72	1345.9	-227.5	-235.71	487.43	-173.3	-262.24	841.95	309.29	-159.33	1199.9	-305.99	-194.22	556.41	-185.96	-227.9	332.23	-69.769	-175.43	35.513	-60.317	-52.354	664.47	176.74	-194.97	24.952	-150.78	-257.44	163.5	-78.595	-245.76	248.46	-75.861	-131.97	30.675	-62.622	-246.19	252.24	-137.45	-120.81	631.07	-178.54	-169.67	636.3	-212.78	-95.499	1331.6	-44.036	-65.345	475.57	171.13	-35.799	1214.5	-23.752	-310.48	70.313	-136.4	-200.02	1568.2	17.627	-141.5	711.87	-240.13	-84.836	563.85	177.84	-118.37	943.9	-366.25	-316.87	1315.7	46.922	-252.04	1412.5	-47.531	-115.61	825.92	-395.13	-331.91	977.74	-128.44	31.355	47.838	178.59	57.52	53.445	97.407	-179.85	1559.8	-116.45	-67.758	789.41	-394.47	-108.39	646.97	190.99	-129.21	39.322	102.47	-122.78	729.56	205.98	-42.815	290.24	162.19	94.837	60.447	112.87	-85.554	79.684	154.94	-57.509	976.89	-180.99	-349.04	973.55	3.7864	-340.48	975.64	-62.328	-29.828	199.23	106.84	-68.513	834.2	-337.59	-1.0855	367.15	102.65	-20.593	282.84	104.21	-54.61	90.595	74.916	-298.68	75.058	-52.291	-312.49	1064.9	173.62	-279.56	1077.9	259.26	-315.83	1082.6	-47.695	-221.21	836.5	246.44	-365.63	31.188	-93.694	-183.72	1016.9	-278.13
614	3.07	9	2014	4	-23.577	1562.1	-85.464	-25.055	1558.4	12.202	-175.98	1375.7	129.94	-222.86	1237.6	221.1	-227.44	779.79	294.14	-192.38	1052.7	-343.39	-226.03	943.47	278.17	-95.659	965.45	149.54	-146.14	1345.3	-227.07	-233.8	487.3	-173.01	-258.31	841.28	309.68	-153.71	1199.3	-305.64	-192	556.06	-185.74	-226.75	332.04	-69.476	-175.38	35.5	-60.348	-48.097	663.4	176.21	-194.98	24.921	-150.8	-257.01	163.45	-78.419	-244.92	248.38	-75.665	-131.79	30.579	-62.731	-245.26	252.18	-137.23	-118.2	630.34	-178.65	-167.12	635.83	-212.66	-91.223	1330.9	-43.699	-61.24	474.52	170.68	-31.543	1213.8	-23.598	-310.35	70.506	-136.35	-195.66	1567.5	17.999	-138.65	711.23	-240.13	-80.843	562.94	177.63	-111.3	943.99	-366	-312.68	1315	47.143	-247.73	1411.8	-47.25	-107.38	826.06	-394.82	-327.94	976.92	-127.56	48.877	49.501	179.86	74.651	55.716	98.611	-175.4	1559.1	-116.06	-59.23	789.97	-393.91	-104.07	646.04	190.83	-111.63	36.289	104.36	-118.17	728.65	206.03	-32.787	290.03	162.43	111.77	63.859	113.91	-68.968	78.012	156.52	-53.905	976.21	-181.04	-344.64	972.62	4.6732	-336.29	974.77	-61.444	-17.205	199.09	107.58	-60.634	834.78	-337.08	6.0565	367.84	102.27	-10.769	282.95	104.47	-38.596	89.501	76.34	-298.53	75.141	-52.235	-308.4	1064.1	173.87	-275.55	1077.2	259.54	-311.68	1082	-47.206	-217.21	835.78	246.88	-365.6	31.439	-93.635	-179.97	1015.7	-275.86
615	3.075	9	2014	4	-19.157	1561.4	-84.931	-20.702	1557.6	12.732	-171.79	1375	130.32	-218.7	1236.8	221.37	-223.4	779.11	294.64	-186.29	1052.1	-343.45	-222	942.74	278.56	-90.985	964.43	149.51	-141.59	1344.7	-226.6	-231.8	487.16	-172.71	-254.32	840.57	310.08	-148.07	1198.7	-305.21	-189.69	555.7	-185.5	-225.52	331.84	-69.203	-175.34	35.491	-60.38	-43.913	662.21	175.69	-194.99	24.89	-150.82	-256.54	163.4	-78.262	-244.04	248.29	-75.483	-131.62	30.481	-62.835	-244.29	252.12	-137.01	-115.55	629.64	-178.81	-164.55	635.34	-212.56	-86.951	1330.2	-43.345	-57.207	473.41	170.27	-27.258	1213	-23.495	-310.21	70.711	-136.3	-191.31	1566.8	18.409	-135.86	710.58	-240.17	-76.961	561.96	177.48	-104.27	944.09	-365.7	-308.48	1314.3	47.428	-243.44	1411.1	-46.92	-99.2	826.23	-394.48	-323.94	976.09	-126.64	66.15	51.44	180.98	91.459	58.266	99.637	-170.95	1558.5	-115.63	-50.766	790.54	-393.31	-99.82	645.01	190.69	-94.232	33.601	106.2	-113.58	727.66	206.09	-22.871	289.95	162.62	128.36	67.51	114.75	-52.561	76.66	158.03	-50.383	975.48	-181.12	-340.18	971.67	5.61	-332.06	973.88	-60.516	-4.7796	199.15	108.25	-52.818	835.37	-336.53	13.052	368.56	101.81	-1.1112	283.19	104.67	-22.811	88.716	77.688	-298.37	75.241	-52.178	-304.28	1063.4	174.15	-271.49	1076.5	259.85	-307.5	1081.3	-46.66	-213.17	835.04	247.31	-365.57	31.719	-93.58	-176.38	1014.7	-273.41
